<svg id="Layer_1" data-name="Layer 1" xmlns="http://www.w3.org/2000/svg" viewBox="0 0 139.95 120.03"><defs><style>.cls-1,.cls-4{fill:#dd052b;}.cls-2,.cls-6{fill:#002d59;}.cls-2,.cls-4{fill-rule:evenodd;}.cls-3,.cls-5{fill:none;stroke-miterlimit:3.86;stroke-width:0.13px;}.cls-3{stroke:#002d59;}.cls-5{stroke:#dd052b;}</style></defs><title>Artboard 1</title><path class="cls-1" d="M125.42,95.55H13.88a.21.21,0,0,1,0-.43H125.42a.21.21,0,0,1,0,.43Z"/><path class="cls-2" d="M80.79,82.28l0-3.18H70.9s-.27-.1-.38.3c-.05.2.35.37.35.37h5.81a4.2,4.2,0,0,1,4.12,2.51ZM88,88.68h-5a2.19,2.19,0,0,1-2.17-2.15,2.06,2.06,0,0,1,0-.58,4.17,4.17,0,0,1-4.21,2.77h-8.2a2.17,2.17,0,0,1-2.24-2.09,1.88,1.88,0,0,1,2.14-2.05H76s.41-.07.41-.33-.41-.31-.41-.31H70.75a4.6,4.6,0,1,1,0-9.21H88a2.16,2.16,0,0,1,2.15,2.18,2.22,2.22,0,0,1-2.23,2.18H85.18v1h2.33a1.66,1.66,0,0,1,0,3.31H85.18v1h2.89a2.13,2.13,0,0,1,2.09,2.18A2.18,2.18,0,0,1,88,88.68Z"/><path class="cls-3" d="M80.79,82.28l0-3.18H70.9s-.27-.1-.38.3c-.05.2.35.37.35.37h5.81a4.2,4.2,0,0,1,4.12,2.51ZM88,88.68h-5a2.19,2.19,0,0,1-2.17-2.15,2.06,2.06,0,0,1,0-.58,4.17,4.17,0,0,1-4.21,2.77h-8.2a2.17,2.17,0,0,1-2.24-2.09,1.88,1.88,0,0,1,2.14-2.05H76s.41-.07.41-.33-.41-.31-.41-.31H70.75a4.6,4.6,0,1,1,0-9.21H88a2.16,2.16,0,0,1,2.15,2.18,2.22,2.22,0,0,1-2.23,2.18H85.18v1h2.33a1.66,1.66,0,0,1,0,3.31H85.18v1h2.89a2.13,2.13,0,0,1,2.09,2.18A2.18,2.18,0,0,1,88,88.68Z"/><path class="cls-4" d="M35.1,83.48h1.69l-.88-1.92-.81,1.93Zm14.55,5.15A2.09,2.09,0,0,0,51.6,87.3h.09a2.16,2.16,0,0,0,2.07,1.46H62a4.48,4.48,0,0,0,4.46-4.58,4.26,4.26,0,0,0-4.4-4.37H56.28s-.42-.16-.42-.37.45-.37.45-.37h7.94a2.15,2.15,0,1,0,0-4.3H56.16a4.6,4.6,0,0,0-4.6,4.6,4.49,4.49,0,0,0,4.6,4.47h5.25s.41,0,.41.31-.41.4-.41.4H53.73a2.12,2.12,0,0,0-2,1.38,2.18,2.18,0,0,0-2.09-1.63H46.78v-1h2.34a1.65,1.65,0,0,0,1.65-1.66A1.67,1.67,0,0,0,49.09,80H46.78V79h2.87a2.15,2.15,0,0,0,2.17-2.13,2.13,2.13,0,0,0-2.11-2.15h-5.1a2.19,2.19,0,0,0-2.2,2.18v8.42L37.86,75.9a2.42,2.42,0,0,0-2.08-1.22,2.22,2.22,0,0,0-1.85,1L29.27,86a2.22,2.22,0,0,0-.06.49,2.16,2.16,0,0,0,2.16,2.16,2.13,2.13,0,0,0,2.18-2h4.79a2,2,0,0,0,2.08,2Z"/><path class="cls-5" d="M35.1,83.48h1.69l-.88-1.92-.81,1.93Zm14.55,5.15A2.09,2.09,0,0,0,51.6,87.3h.09a2.16,2.16,0,0,0,2.07,1.46H62a4.48,4.48,0,0,0,4.46-4.58,4.26,4.26,0,0,0-4.4-4.37H56.28s-.42-.16-.42-.37.45-.37.45-.37h7.94a2.15,2.15,0,1,0,0-4.3H56.16a4.6,4.6,0,0,0-4.6,4.6,4.49,4.49,0,0,0,4.6,4.47h5.25s.41,0,.41.31-.41.4-.41.4H53.73a2.12,2.12,0,0,0-2,1.38,2.18,2.18,0,0,0-2.09-1.63H46.78v-1h2.34a1.65,1.65,0,0,0,1.65-1.66A1.67,1.67,0,0,0,49.09,80H46.78V79h2.87a2.15,2.15,0,0,0,2.17-2.13,2.13,2.13,0,0,0-2.11-2.15h-5.1a2.19,2.19,0,0,0-2.2,2.18v8.42L37.86,75.9a2.42,2.42,0,0,0-2.08-1.22,2.22,2.22,0,0,0-1.85,1L29.27,86a2.22,2.22,0,0,0-.06.49,2.16,2.16,0,0,0,2.16,2.16,2.13,2.13,0,0,0,2.18-2h4.79a2,2,0,0,0,2.08,2Z"/><path class="cls-2" d="M96.71,81.78l-.8,1.73h1.72l-.91-1.74Zm6.68-5a2.1,2.1,0,0,1,2.14-2.1,2.13,2.13,0,0,1,2.18,2.1v7.57h2.84a2.16,2.16,0,0,1,2.14,2.17,2.18,2.18,0,0,1-2.2,2.14h-9.19a1.93,1.93,0,0,1-2.07-2H94.62a2.41,2.41,0,0,1-2.34,2,2.16,2.16,0,0,1-2.16-2.16A1.82,1.82,0,0,1,90.2,86l4.6-10.14a2.15,2.15,0,0,1,1.9-1.13,2.24,2.24,0,0,1,1.91,1.16l4.08,8.46h.66l0-7.52Z"/><path class="cls-3" d="M96.71,81.78l-.8,1.73h1.72l-.91-1.74Zm6.68-5a2.1,2.1,0,0,1,2.14-2.1,2.13,2.13,0,0,1,2.18,2.1v7.57h2.84a2.16,2.16,0,0,1,2.14,2.17,2.18,2.18,0,0,1-2.2,2.14h-9.19a1.93,1.93,0,0,1-2.07-2H94.62a2.41,2.41,0,0,1-2.34,2,2.16,2.16,0,0,1-2.16-2.16A1.82,1.82,0,0,1,90.2,86l4.6-10.14a2.15,2.15,0,0,1,1.9-1.13,2.24,2.24,0,0,1,1.91,1.16l4.08,8.46h.66l0-7.52Z"/><path class="cls-2" d="M111.27,76.14h.23l.38.63h.28l-.42-.65a.38.38,0,0,0,.39-.4c0-.3-.18-.43-.54-.43H111v1.48h.24v-.63Zm0-.21V75.5h.29c.15,0,.32,0,.32.2s-.16.23-.34.23Zm1.58.08a1.31,1.31,0,1,0-1.31,1.34A1.3,1.3,0,0,0,112.84,76Zm-.29,0a1,1,0,1,1-1-1.11,1,1,0,0,1,1,1.11Z"/><path class="cls-1" d="M122.82,105.85v-4.64h.62v4.12h2.46v.52Zm-108.75,0v-4.64h3.21v.52H14.68v1.48h2.41v.52H14.68v1.61h2.61v.52Zm4,0,1.62-2.39-1.53-2.26h.74L20,103l1.21-1.82h.69l-1.54,2.26L22,105.85h-.75L20,103.94l-1.29,1.92Zm5,0v-4.64h2a1.37,1.37,0,1,1,0,2.74H23.68v1.9Zm.62-4.12v1.71h1.21c.7,0,1-.3,1-.85s-.31-.85-1-.85Zm4.12,4.12v-4.64H31v.52H28.41v1.48h2.41v.52H28.41v1.61H31v.52Zm4.5,0v-4.64h2.19c.88,0,1.41.47,1.41,1.21a1.1,1.1,0,0,1-.81,1.18c.54.12.64.52.7,1a2.31,2.31,0,0,0,.27,1.28h-.69c-.18-.19-.08-.69-.17-1.14s-.18-.84-.77-.84H32.91v2Zm.62-2.5H34.2c.57,0,1.07-.15,1.07-.83a.73.73,0,0,0-.83-.79H32.91v1.62Zm4.39,2.5v-4.64h.62v4.64Zm2.18,0v-4.64h3.21v.52H40.1v1.48h2.41v.52H40.1v1.61h2.61v.52Zm4.49,0v-4.64h.66L47.08,105v-3.77h.59v4.64H47l-2.43-3.73v3.73Zm5-2.31a2.2,2.2,0,0,1,2.2-2.45,1.77,1.77,0,0,1,1.91,1.51h-.62a1.22,1.22,0,0,0-1.3-1c-1.11,0-1.57.91-1.57,1.88s.47,1.94,1.58,1.94a1.31,1.31,0,0,0,1.34-1.34h.62a1.89,1.89,0,0,1-2,1.86A2.14,2.14,0,0,1,49,103.55Zm5.45,2.31v-4.64h3.21v.52H55v1.48h2.41v.52H55v1.61h2.61v.52Zm7.88,0v-4.12H60.75v-.52h3.71v.52H62.92v4.12Zm3.2,0v-4.64h.62v2h2.45v-2h.62v4.64h-.62v-2.13H66.12v2.13Zm5.22,0v-4.64h3.21v.52H71.34v1.48h2.41v.52H71.34v1.61H74v.52Zm6.83,0v-4.64h3.21v.52H78.17v1.48h2.41v.52H78.17v1.61h2.61v.52Zm4,0,1.62-2.39-1.53-2.26h.74L83.53,103l1.21-1.82h.69l-1.53,2.26,1.63,2.39h-.75l-1.25-1.92-1.29,1.92Zm4.71-2.31a2.2,2.2,0,0,1,2.2-2.45,1.77,1.77,0,0,1,1.91,1.51h-.62a1.22,1.22,0,0,0-1.3-1c-1.11,0-1.57.91-1.57,1.88s.47,1.94,1.58,1.94a1.31,1.31,0,0,0,1.34-1.34h.62a1.89,1.89,0,0,1-2,1.86,2.14,2.14,0,0,1-2.15-2.42Zm5.45,2.31v-4.64H94.9v.52H92.31v1.48h2.41v.52H92.31v1.61h2.61v.52Zm4.5,0v-4.64h2a1.37,1.37,0,1,1,0,2.74H96.81v1.9Zm.62-4.12v1.71H98c.7,0,1-.3,1-.85s-.31-.85-1-.85Zm5.17,4.12v-4.12h-1.55v-.52h3.71v.52H102.6v4.12Zm3.23,0v-4.64h.62v4.64Zm1.92-2.32a2.23,2.23,0,1,1,2.22,2.43,2.23,2.23,0,0,1-2.22-2.43Zm.62,0c0,.94.47,1.91,1.61,1.91s1.61-1,1.61-1.91-.47-1.91-1.61-1.91-1.61,1-1.61,1.91Zm5.1,2.32v-4.64h.66L116,105v-3.77h.59v4.64h-.68l-2.43-3.73v3.73Zm4.67,0,1.82-4.64H120l1.81,4.64h-.68l-.51-1.4h-2l-.52,1.4Zm1.35-1.92h1.57l-.77-2.17-.8,2.17Z"/><path class="cls-6" d="M42,57H62.91a1.63,1.63,0,0,1,.61.15,1.61,1.61,0,0,1,.35.37l2.76,4.6a1.48,1.48,0,0,0,.45.42,1.46,1.46,0,0,0,.51.06H100a5.76,5.76,0,0,1,2.09.41,5.75,5.75,0,0,1,1.43,1.38l2,3.35s.38.9,0,1.36a1.29,1.29,0,0,1-1.07.58H70.14A1.38,1.38,0,0,1,68.79,69l-3.43-5.68a1.56,1.56,0,0,0-.4-.51,1.58,1.58,0,0,0-.75-.13h-25s-.66.06-.84-.24a.78.78,0,0,1,.09-.78L41,57.68A1,1,0,0,1,42,57Z"/><path class="cls-6" d="M55.37,35.83h7.43a1,1,0,0,1,1,.52L66.53,41a.91.91,0,0,0,1,.48H86.3a5.75,5.75,0,0,1,2.09.41,5.74,5.74,0,0,1,1.43,1.38L91.5,46a2.06,2.06,0,0,1,0,1.85,2,2,0,0,1-1.52.65H70a1.37,1.37,0,0,1-1.35-.75l-3.43-5.68a1.56,1.56,0,0,0-.4-.51,1.57,1.57,0,0,0-.75-.13H52.56s-.66.06-.84-.24a.78.78,0,0,1,.09-.78l2.49-3.94a1,1,0,0,1,1.08-.65Z"/><path class="cls-1" d="M69.66,14.06c1.52,0,2.61,1.79,2.61,1.79L84.58,34.92a2.11,2.11,0,0,1,.2,2,2.05,2.05,0,0,1-1.58.88H69.81a1.4,1.4,0,0,1-1.24-.69l-3.43-5.6a1.56,1.56,0,0,0-1.42-.67h-4s-.9.07-1.13-.42.29-1.23.29-1.23l8.07-13.13s1-2,2.74-2Z"/><path class="cls-6" d="M48.75,46.42H62.91a1.62,1.62,0,0,1,.61.15,1.6,1.6,0,0,1,.35.37l2.76,4.6a1.46,1.46,0,0,0,.45.42,1.44,1.44,0,0,0,.51.06H93.09a5.75,5.75,0,0,1,2.09.41,5.74,5.74,0,0,1,1.43,1.38l1.68,2.79a2.06,2.06,0,0,1,0,1.85,2,2,0,0,1-1.52.65H70.14a1.38,1.38,0,0,1-1.35-.75l-3.43-5.68a1.56,1.56,0,0,0-.4-.51,1.59,1.59,0,0,0-.75-.13H45.93s-.66.06-.84-.24a.78.78,0,0,1,.09-.78l2.48-3.94a1,1,0,0,1,1.08-.65Z"/></svg>